<svg width="44" height="44" viewBox="0 0 44 44" fill="none" xmlns="http://www.w3.org/2000/svg">
<rect width="44" height="44" rx="22" fill="#EAF3FF"/>
<path fill-rule="evenodd" clip-rule="evenodd" d="M19.4998 15.25C18.0731 15.25 16.9165 16.4066 16.9165 17.8333C16.9165 19.2601 18.0731 20.4167 19.4998 20.4167C20.9266 20.4167 22.0832 19.2601 22.0832 17.8333C22.0832 16.4066 20.9266 15.25 19.4998 15.25ZM15.4165 17.8333C15.4165 15.5782 17.2447 13.75 19.4998 13.75C21.755 13.75 23.5832 15.5782 23.5832 17.8333C23.5832 20.0885 21.755 21.9167 19.4998 21.9167C17.2447 21.9167 15.4165 20.0885 15.4165 17.8333ZM16.9998 25.25C15.5731 25.25 14.4165 26.4066 14.4165 27.8333C14.4165 28.3396 14.8269 28.75 15.3332 28.75H23.6665C24.1728 28.75 24.5832 28.3396 24.5832 27.8333C24.5832 26.4066 23.4266 25.25 21.9998 25.25H16.9998ZM26.0832 27.8333C26.0832 29.168 25.0012 30.25 23.6665 30.25H15.3332C13.9985 30.25 12.9165 29.168 12.9165 27.8333C12.9165 25.5782 14.7447 23.75 16.9998 23.75H21.9998C24.255 23.75 26.0832 25.5782 26.0832 27.8333ZM29.4165 17.8333C29.4165 17.4191 29.0807 17.0833 28.6665 17.0833C28.2523 17.0833 27.9165 17.4191 27.9165 17.8333V19.5833H26.1665C25.7523 19.5833 25.4165 19.9191 25.4165 20.3333C25.4165 20.7475 25.7523 21.0833 26.1665 21.0833H27.9165V22.8333C27.9165 23.2475 28.2523 23.5833 28.6665 23.5833C29.0807 23.5833 29.4165 23.2475 29.4165 22.8333V21.0833H31.1665C31.5807 21.0833 31.9165 20.7475 31.9165 20.3333C31.9165 19.9191 31.5807 19.5833 31.1665 19.5833H29.4165V17.8333Z" fill="#2D81FD"/>
</svg>
