<svg width="20" height="20" viewBox="0 0 20 20" fill="none" xmlns="http://www.w3.org/2000/svg">
<path fill-rule="evenodd" clip-rule="evenodd" d="M9.83614 0.91676L10 0.916771L10.1639 0.91676C12.1787 0.916539 13.3711 0.916409 14.3631 1.22918C16.4635 1.89142 18.1087 3.53665 18.7709 5.63701C19.0837 6.62899 19.0836 7.82146 19.0834 9.83621L19.0833 10.0001L19.0834 10.164C19.0836 12.1788 19.0837 13.3712 18.7709 14.3632C18.1087 16.4636 16.4635 18.1088 14.3631 18.771C13.3711 19.0838 12.1787 19.0837 10.1639 19.0835L10 19.0834L9.83612 19.0835C7.82137 19.0837 6.6289 19.0838 5.63692 18.771C3.53656 18.1088 1.89133 16.4636 1.22909 14.3632C0.916318 13.3712 0.916448 12.1787 0.916668 10.164L0.91668 10.0001L0.916668 9.83623C0.916448 7.82147 0.916318 6.629 1.22909 5.63701C1.89133 3.53665 3.53656 1.89142 5.63692 1.22918C6.6289 0.916409 7.82137 0.916539 9.83614 0.91676ZM2.41668 10.0001C2.41668 12.228 2.42543 13.1692 2.65967 13.9121C3.17474 15.5458 4.45436 16.8254 6.08798 17.3405C6.83088 17.5747 7.77212 17.5834 10 17.5834C12.2279 17.5834 13.1692 17.5747 13.9121 17.3405C15.5457 16.8254 16.8253 15.5458 17.3404 13.9121C17.5746 13.1692 17.5833 12.228 17.5833 10.0001C17.5833 7.77221 17.5746 6.83097 17.3404 6.08807C16.8253 4.45445 15.5457 3.17483 13.9121 2.65976C13.1692 2.42552 12.2279 2.41677 10 2.41677C7.77212 2.41677 6.83088 2.42552 6.08798 2.65976C4.45436 3.17483 3.17474 4.45445 2.65967 6.08807C2.42543 6.83097 2.41668 7.77221 2.41668 10.0001ZM8.8889 11.5834C8.07582 11.5834 7.41668 12.2426 7.41668 13.0557C7.41668 13.2551 7.57835 13.4168 7.77779 13.4168H12.2222C12.4217 13.4168 12.5833 13.2551 12.5833 13.0557C12.5833 12.2426 11.9242 11.5834 11.1111 11.5834H8.8889ZM14.0833 13.0557C14.0833 14.0835 13.2501 14.9168 12.2222 14.9168H7.77779C6.74993 14.9168 5.91668 14.0835 5.91668 13.0557C5.91668 11.4141 7.24739 10.0834 8.8889 10.0834H11.1111C12.7526 10.0834 14.0833 11.4141 14.0833 13.0557ZM9.08335 6.66677C9.08335 6.16051 9.49375 5.7501 10 5.7501C10.5063 5.7501 10.9167 6.16051 10.9167 6.66677C10.9167 7.17303 10.5063 7.58344 10 7.58344C9.49375 7.58344 9.08335 7.17303 9.08335 6.66677ZM10 4.2501C8.66532 4.2501 7.58335 5.33208 7.58335 6.66677C7.58335 8.00146 8.66532 9.08344 10 9.08344C11.3347 9.08344 12.4167 8.00146 12.4167 6.66677C12.4167 5.33208 11.3347 4.2501 10 4.2501Z" fill="#31343F"/>
</svg>
