<?xml version="1.0" encoding="utf-8"?><svg xmlns="http://www.w3.org/2000/svg" xmlns:xlink="http://www.w3.org/1999/xlink"><symbol fill="none" viewBox="0 0 44 44" id="adds-user-icon" xmlns="http://www.w3.org/2000/svg"><rect width="44" height="44" rx="22" fill="#EAF3FF"/><path fill-rule="evenodd" clip-rule="evenodd" d="M19.5 15.25a2.583 2.583 0 1 0 0 5.167 2.583 2.583 0 0 0 0-5.167Zm-4.084 2.583a4.083 4.083 0 1 1 8.167 0 4.083 4.083 0 0 1-8.166 0ZM17 25.25a2.583 2.583 0 0 0-2.584 2.583c0 .507.41.917.917.917h8.333c.507 0 .917-.41.917-.917A2.583 2.583 0 0 0 22 25.25h-5Zm9.083 2.583a2.417 2.417 0 0 1-2.416 2.417h-8.334a2.417 2.417 0 0 1-2.417-2.417A4.083 4.083 0 0 1 17 23.75h5a4.083 4.083 0 0 1 4.083 4.083Zm3.334-10a.75.75 0 0 0-1.5 0v1.75h-1.75a.75.75 0 0 0 0 1.5h1.75v1.75a.75.75 0 0 0 1.5 0v-1.75h1.75a.75.75 0 0 0 0-1.5h-1.75v-1.75Z" fill="#2D81FD"/></symbol></svg>