<?xml version="1.0" encoding="utf-8"?><svg xmlns="http://www.w3.org/2000/svg" xmlns:xlink="http://www.w3.org/1999/xlink"><symbol fill="none" viewBox="0 0 44 44" id="adds-user-icon" xmlns="http://www.w3.org/2000/svg"><rect width="44" height="44" rx="22" fill="#EAF3FF"/><path fill-rule="evenodd" clip-rule="evenodd" d="M19.5 15.25a2.583 2.583 0 1 0 0 5.167 2.583 2.583 0 0 0 0-5.167Zm-4.084 2.583a4.083 4.083 0 1 1 8.167 0 4.083 4.083 0 0 1-8.166 0ZM17 25.25a2.583 2.583 0 0 0-2.584 2.583c0 .507.41.917.917.917h8.333c.507 0 .917-.41.917-.917A2.583 2.583 0 0 0 22 25.25h-5Zm9.083 2.583a2.417 2.417 0 0 1-2.416 2.417h-8.334a2.417 2.417 0 0 1-2.417-2.417A4.083 4.083 0 0 1 17 23.75h5a4.083 4.083 0 0 1 4.083 4.083Zm3.334-10a.75.75 0 0 0-1.5 0v1.75h-1.75a.75.75 0 0 0 0 1.5h1.75v1.75a.75.75 0 0 0 1.5 0v-1.75h1.75a.75.75 0 0 0 0-1.5h-1.75v-1.75Z" fill="#2D81FD"/></symbol><symbol fill="none" viewBox="0 0 20 20" id="my-queues-icon" xmlns="http://www.w3.org/2000/svg"><path fill-rule="evenodd" clip-rule="evenodd" d="M9.836.917h.328c2.015 0 3.207 0 4.2.312a6.75 6.75 0 0 1 4.407 4.408c.313.992.313 2.184.312 4.2v.327c0 2.015 0 3.207-.312 4.2a6.75 6.75 0 0 1-4.408 4.407c-.992.313-2.184.313-4.2.313h-.327c-2.015 0-3.207 0-4.2-.313a6.75 6.75 0 0 1-4.407-4.408c-.313-.992-.313-2.184-.312-4.199v-.328c0-2.015 0-3.207.312-4.199a6.75 6.75 0 0 1 4.408-4.408C6.629.916 7.82.917 9.837.917ZM2.416 10c0 2.228.01 3.17.244 3.912a5.25 5.25 0 0 0 3.428 3.428c.743.235 1.684.243 3.912.243 2.228 0 3.17-.008 3.912-.242a5.25 5.25 0 0 0 3.428-3.429c.235-.743.243-1.684.243-3.912 0-2.228-.008-3.169-.243-3.912a5.25 5.25 0 0 0-3.428-3.428c-.743-.234-1.684-.243-3.912-.243-2.228 0-3.17.009-3.912.243A5.25 5.25 0 0 0 2.66 6.088c-.235.743-.243 1.684-.243 3.912Zm6.473 1.583c-.813 0-1.472.66-1.472 1.473 0 .2.161.36.36.36h4.445c.2 0 .361-.16.361-.36 0-.813-.659-1.473-1.472-1.473H8.89Zm5.194 1.473a1.861 1.861 0 0 1-1.86 1.86H7.777a1.861 1.861 0 0 1-1.861-1.86 2.972 2.972 0 0 1 2.972-2.973h2.222a2.972 2.972 0 0 1 2.972 2.973Zm-5-6.39a.917.917 0 1 1 1.834 0 .917.917 0 0 1-1.834 0ZM10 4.25a2.417 2.417 0 1 0 0 4.833 2.417 2.417 0 0 0 0-4.833Z" fill="#31343F"/></symbol></svg>